# xmcd
#
# Track frame offsets: 
#        150
#        14029
#        30013
#        43583
#        67274
#        86144
#        101749
#        122740
#        142007
#        156802
#        181403
#        203730
#        220620
#        239964
#        260740
#        280009
#        289799
#        310848
#        328131
#
# Disc length: 4766 seconds
#
# Revision: 2
# Processed by: cddbd v1.5.2PL0 Copyright (c) Steve Scherf et al.
# Submitted via: ExactAudioCopy v1.3
#
DISCID=26129c13
DTITLE=Various Artist - Akella Presents - vol.35 - Rockin' Blues and Bo
DTITLE=ogie Rock - CD1
DYEAR=2013
DGENRE=Rockin' Blues
TTITLE0=Paul Thorn - Weeds In My Roses
TTITLE1=Sterling Koch - Shake Your Hips
TTITLE2=Blue Room - Train
TTITLE3=Eric Street Band - The Wrong Road
TTITLE4=Scuttlebuttin - You Cant Keep a Good Man Down
TTITLE5=Too Slim And The Taildraggers - When Whisky Was My Friend
TTITLE6=JJ Grey and Mofro - Somebody Else
TTITLE7=David Shelley and Bluestone - Carolina Bound
TTITLE8=Spin Doctors - If The River Was Whiskey
TTITLE9=Tim Brooks - Dull You Under
TTITLE10=Blue On Black - King O' Spades (Prelude)-Robert Johnson's Doo
TTITLE10=r
TTITLE11=Pat Ramsey - We Can Fly
TTITLE12=Mike Morgan and The Crawl - Lowdown And Evil
TTITLE13=Bugs Henderson Group - Quicksand
TTITLE14=Anders Osborne - On The Road To Charlie Parker
TTITLE15=Resurrection Band - On The Move
TTITLE16=Mojo Monkeys - Bodacious
TTITLE17=Midnight Creepers - Handful of Aces
TTITLE18=The Groove Junkies - Rosalee
EXTD=
EXTT0=
EXTT1=
EXTT2=
EXTT3=
EXTT4=
EXTT5=
EXTT6=
EXTT7=
EXTT8=
EXTT9=
EXTT10=
EXTT11=
EXTT12=
EXTT13=
EXTT14=
EXTT15=
EXTT16=
EXTT17=
EXTT18=
PLAYORDER=
